/* XPM */
static char *e76cccd746454cc9849f4a73cff2f029FfL31AOykHJHXrqT[] = {
/* columns rows colors chars-per-pixel */
"16 16 97 2 ",
"   c #B1B1B1",
".  c gray65",
"X  c gray58",
"o  c gray50",
"O  c #606060",
"+  c gray36",
"@  c #818181",
"#  c #B4B4B4",
"$  c gray56",
"%  c #686868",
"&  c #2C2C2C",
"*  c #888888",
"=  c #909090",
"-  c #3A3A3A",
";  c #6F6F6F",
":  c #9D9D9D",
">  c #5A5A5A",
",  c #2F2F2F",
"<  c #5B5B5B",
"1  c #838383",
"2  c gray20",
"3  c gray15",
"4  c #8B8B8B",
"5  c gray22",
"6  c #848484",
"7  c #717171",
"8  c #484848",
"9  c #323232",
"0  c gray72",
"q  c #676767",
"w  c gray24",
"e  c #A9A9A9",
"r  c #B7B7B7",
"t  c gray70",
"y  c gray52",
"u  c #A4A4A4",
"i  c gray62",
"p  c gray61",
"a  c gray32",
"s  c #7C7C7C",
"d  c #AAAAAA",
"f  c #727272",
"g  c gray49",
"h  c #797979",
"j  c gray54",
"k  c #373737",
"l  c gray77",
"z  c gray39",
"x  c gray38",
"c  c #8E8E8E",
"v  c gray64",
"b  c #7E7E7E",
"n  c #565656",
"m  c gray19",
"M  c gray33",
"N  c #515151",
"B  c gray37",
"V  c #4C4C4C",
"C  c #626262",
"Z  c #C0C0C0",
"A  c gray14",
"S  c #B9B9B9",
"D  c #6D6D6D",
"F  c gray66",
"G  c #5F5F5F",
"H  c #494949",
"J  c #3E3E3E",
"K  c gray13",
"L  c gray23",
"P  c DimGray",
"I  c gray57",
"U  c #959595",
"Y  c #868686",
"T  c #9B9B9B",
"R  c #A0A0A0",
"E  c gray43",
"W  c #929292",
"Q  c #ACACAC",
"!  c gray28",
"~  c gray21",
"^  c #9F9F9F",
"/  c #7B7B7B",
"(  c gray44",
")  c #B6B6B6",
"_  c #CBCBCB",
"`  c #898989",
"'  c gray46",
"]  c #434343",
"[  c #A2A2A2",
"{  c gray47",
"}  c #4E4E4E",
"|  c #2A2A2A",
" . c gray16",
".. c #AFAFAF",
"X. c gray34",
"o. c gray29",
"O. c #3C3C3C",
/* pixels */
"      . X o O + +       @ + # $ ",
"    % o & +     + o * o = - ; : ",
"> o o , <     1 2 3 4 o 5 + + 6 ",
"7 8 9 + 0 q X o 5 < 5 w + e r < ",
"t   + +   y y w + u i p a s d + ",
"f y g + h j o k e l h * z < , - ",
"o o o + % 5 5 O x c v o f o b n ",
"o o m M d   + N B V k * o 5 C Z ",
"g A + S   o D   F b G H J K l   ",
"4 +   # * L   P S = I + B Z o o ",
"+ . h o o 2   U o o Y 5 G + T 6 ",
"+ + R g E 5 o @ W o 5 N Q + + 5 ",
"    5 5 5 5 z o ! ~   ^ o o + + ",
"0 / ( r F ) + 5 z _ u o W o ` ~ ",
"' ` ] [ 1 h b + + + o = j X w 5 ",
"{ ' f } |  .5 + ..@ X.B ! o.O.C "
};
