/* XPM */
static const char *north_8x8_xpm[] = {
"8 8 3 1",
"  c #FFFFFF",
": c #000000",
". c #0045AD",  /* Light blue color */

/* Pixel data */
"........",
".:....:.",
".::...:.",
".:.:..:.",
".:..:.:.",
".:...::.",
".:....:.",
"....... "
};