/* XPM */
static const char *south_8x8_xpm[] = {
"8 8 3 1",
"  c #FFFFFF",
": c #000000",
". c #009B48",  /* Light blue color */

/* Pixel data */
"........",
"..::::..",
".:......",
"..::::..",
"......:.",
".:....:.",
"..::::..",
"....... "
};