/* XPM */
static const char *west_8x8_xpm[] = {
"8 8 3 1",
"  c #FFFFFF",
": c #000000",
". c #FF5900",  /* Light blue color */

/* Pixel data */
"........",
".:....:.",
".:....:.",
".:..:.:.",
".:.::.:.",
".::..::.",
".:....:.",
"....... "
};