/* XPM */
static char * dimond_xpm[] = {
"17 16 257 2",
"  	c #6F7180",
". 	c #858286",
"+ 	c #75716E",
"@ 	c #766F6D",
"# 	c #8A8381",
"$ 	c #74706B",
"% 	c #686760",
"& 	c #696A61",
"* 	c #72746A",
"= 	c #686461",
"- 	c #5D5754",
"; 	c #686662",
"> 	c #696A65",
", 	c #71716F",
"' 	c #848280",
") 	c #888584",
"! 	c #848282",
"~ 	c #666666",
"{ 	c #737373",
"] 	c #707070",
"^ 	c #69666A",
"/ 	c #717173",
"( 	c #525B5B",
"_ 	c #7A8684",
": 	c #7A8682",
"< 	c #808988",
"[ 	c #7E8486",
"} 	c #707477",
"| 	c #737576",
"1 	c #646B6B",
"2 	c #505D60",
"3 	c #63676B",
"4 	c #727274",
"5 	c #727270",
"6 	c #6F7271",
"7 	c #656768",
"8 	c #595B5F",
"9 	c #535C60",
"0 	c #839C9D",
"a 	c #6F8C8E",
"b 	c #61757C",
"c 	c #4E5F67",
"d 	c #4B5F64",
"e 	c #5E6D71",
"f 	c #525D5E",
"g 	c #A9C8CB",
"h 	c #557477",
"i 	c #6E787E",
"j 	c #717374",
"k 	c #696967",
"l 	c #848786",
"m 	c #7F8484",
"n 	c #828689",
"o 	c #6A7578",
"p 	c #85A0A3",
"q 	c #6F8C90",
"r 	c #4A5F68",
"s 	c #B2C5CE",
"t 	c #5B7175",
"u 	c #889C9C",
"v 	c #7A8886",
"w 	c #657876",
"x 	c #80A5A4",
"y 	c #6C8B8F",
"z 	c #606B6E",
"A 	c #646665",
"B 	c #717171",
"C 	c #676A69",
"D 	c #6E7371",
"E 	c #6F7173",
"F 	c #6F7374",
"G 	c #616C6F",
"H 	c #4E6061",
"I 	c #4A5E61",
"J 	c #748988",
"K 	c #92A0A0",
"L 	c #647773",
"M 	c #547467",
"N 	c #597B70",
"O 	c #758C89",
"P 	c #5D6B6B",
"Q 	c #6E7273",
"R 	c #6F726F",
"S 	c #858585",
"T 	c #808584",
"U 	c #707575",
"V 	c #656E6F",
"W 	c #4D5F60",
"X 	c #DDF8F8",
"Y 	c #A5CAC9",
"Z 	c #43605F",
"` 	c #677573",
" .	c #5B6C66",
"..	c #D2FDF1",
"+.	c #A5D0C3",
"@.	c #606F6A",
"#.	c #585A5A",
"$.	c #67696B",
"%.	c #838685",
"&.	c #686B6A",
"*.	c #616767",
"=.	c #7B8989",
"-.	c #DEF7F8",
";.	c #A2D2D2",
">.	c #6BA9A8",
",.	c #66A8A8",
"'.	c #447879",
").	c #8EA0A1",
"!.	c #72A59F",
"~.	c #477871",
"{.	c #6B7773",
"].	c #767273",
"^.	c #727178",
"/.	c #858887",
"(.	c #808785",
"_.	c #4E5F5E",
":.	c #486162",
"<.	c #698D8F",
"[.	c #75A7A9",
"}.	c #71ACAD",
"|.	c #6DAEB1",
"1.	c #74AEB1",
"2.	c #416768",
"3.	c #3D6160",
"4.	c #609794",
"5.	c #7DABA7",
"6.	c #687470",
"7.	c #898584",
"8.	c #9A999E",
"9.	c #959B9E",
"0.	c #676C6A",
"a.	c #4E5F5C",
"b.	c #ACC8C5",
"c.	c #769F9F",
"d.	c #7CA4A7",
"e.	c #738B91",
"f.	c #60767C",
"g.	c #4E7274",
"h.	c #366B69",
"i.	c #C0FFFF",
"j.	c #8FD6D0",
"k.	c #467877",
"l.	c #5B7978",
"m.	c #717370",
"n.	c #80827F",
"o.	c #606B60",
"p.	c #6F7472",
"q.	c #687975",
"r.	c #87A09F",
"s.	c #80A4A6",
"t.	c #5A7C80",
"u.	c #4C5D65",
"v.	c #66737A",
"w.	c #5A6F71",
"x.	c #A5CCCA",
"y.	c #62AAA4",
"z.	c #3B827E",
"A.	c #4C7776",
"B.	c #8BA1A3",
"C.	c #798784",
"D.	c #949B99",
"E.	c #939894",
"F.	c #6D786D",
"G.	c #565B5C",
"H.	c #6D7476",
"I.	c #62676F",
"J.	c #65747A",
"K.	c #7E9DA0",
"L.	c #4F6E71",
"M.	c #758A88",
"N.	c #85A7A7",
"O.	c #81A6A7",
"P.	c #708D8F",
"Q.	c #476061",
"R.	c #4A5F5F",
"S.	c #5B6B6B",
"T.	c #63696C",
"U.	c #727475",
"V.	c #727176",
"W.	c #737277",
"X.	c #697379",
"Y.	c #587A7C",
"Z.	c #6C8D90",
"`.	c #778786",
" +	c #7C8786",
".+	c #718A88",
"++	c #4F7171",
"@+	c #3C6869",
"#+	c #A4CFD1",
"$+	c #507679",
"%+	c #728D8F",
"&+	c #7E878B",
"*+	c #747172",
"=+	c #5C5E5D",
"-+	c #707573",
";+	c #656C6C",
">+	c #4B6060",
",+	c #496466",
"'+	c #647B7F",
")+	c #7C8584",
"!+	c #60716B",
"~+	c #A2CEC6",
"{+	c #C4FFFF",
"]+	c #88D8D8",
"^+	c #5EADB2",
"/+	c #68A9AE",
"(+	c #4D757A",
"_+	c #7E8887",
":+	c #6A6662",
"<+	c #727473",
"[+	c #808682",
"}+	c #7D8784",
"|+	c #90A09D",
"1+	c #B5C7C5",
"2+	c #5D6F72",
"3+	c #515F61",
"4+	c #666A69",
"5+	c #697772",
"6+	c #7BA39A",
"7+	c #407F77",
"8+	c #5FACAB",
"9+	c #64AEB3",
"0+	c #6EA8B0",
"a+	c #698C93",
"b+	c #6E7776",
"c+	c #75736F",
"d+	c #858885",
"e+	c #747772",
"f+	c #646A66",
"g+	c #979AA0",
"h+	c #838788",
"i+	c #848482",
"j+	c #727471",
"k+	c #697571",
"l+	c #748B86",
"m+	c #89A9A8",
"n+	c #5F7B7F",
"o+	c #5A6E75",
"p+	c #5C696D",
"q+	c #646A6D",
"r+	c #72736E",
"s+	c #767563",
"t+	c #797662",
"u+	c #7B7468",
"v+	c #776F69",
"w+	c #767067",
"x+	c #777266",
"y+	c #6F685B",
"z+	c #8A8373",
"A+	c #797260",
"B+	c #777362",
"C+	c #737569",
"D+	c #74766C",
"E+	c #757268",
"F+	c #78756A",
"G+	c #858579",
"H+	c #84857C",
"  . + @ # $ % & * = - ; > , ' ) ! ",
"~ { ] ^ / ( _ : < [ } | 1 2 2 3 4 ",
"5 6 7 8 9 0 a b c d e 3 f g h i j ",
"k l m n o p q r s t u v w x y z A ",
"B C D E F G H I J K L M N O P Q R ",
"S 6 T U V W X Y Z `  ...+.@.#.$.%.",
"5 &.*.=.-.;.>.,.'.).w !.~.{.].^.} ",
"/.(._.:.<.[.}.|.1.2.3.4.5.6.7.8.9.",
"0.a.b.c.d.e.f.g.h.i.j.k.l.{.m.n.o.",
"p.q.r.s.t.u.v.w.x.y.z.A.B.C.D.E.F.",
"#.G.H.I.J.K.L.H M.N.O.P.Q.R.S.T.C ",
"~ U.V.W.X.Y.Z.`. +.+++@+#+$+%+&+*+",
"=+-+;+C.>+,+'+)+!+~+{+]+^+/+(+_+:+",
"<+[+}+|+1+2+3+4+5+6+7+8+9+0+a+b+c+",
"d+e+f+3 g+h+T i+j+k+l+m+n+o+p+q+F ",
"r+s+t+u+v+w+x+y+z+A+B+C+D+E+F+G+H+"};
