/* XPM */
static char * TNT_xpm[] = {
"16 16 242 2",
"  	c #AD523F",
". 	c #BD4E3F",
"+ 	c #A43C37",
"@ 	c #871F19",
"# 	c #B74837",
"$ 	c #BC4D3C",
"% 	c #A13931",
"& 	c #891F17",
"* 	c #BD4738",
"= 	c #C04D3D",
"- 	c #9F3D30",
"; 	c #852317",
"> 	c #BA4938",
", 	c #BB4A3A",
"' 	c #9F3C32",
") 	c #81271F",
"! 	c #B33922",
"~ 	c #C22E1E",
"{ 	c #9D1A12",
"] 	c #9C170F",
"^ 	c #C52F1D",
"/ 	c #C32E1C",
"( 	c #9D160F",
"_ 	c #9F1710",
": 	c #C72F1E",
"< 	c #9A1A0E",
"[ 	c #9B1B10",
"} 	c #C6301E",
"| 	c #C7311F",
"1 	c #99190D",
"2 	c #94211A",
"3 	c #B03720",
"4 	c #C33120",
"5 	c #981C12",
"6 	c #991C12",
"7 	c #C42B1D",
"8 	c #CA2F21",
"9 	c #9D1810",
"0 	c #9F1C14",
"a 	c #C53423",
"b 	c #961D12",
"c 	c #9B2015",
"d 	c #C12D1B",
"e 	c #C52F1B",
"f 	c #9B1D11",
"g 	c #8E2018",
"h 	c #AE3F2E",
"i 	c #B43225",
"j 	c #8D2118",
"k 	c #BC352A",
"l 	c #BA3028",
"m 	c #8F1C17",
"n 	c #91201B",
"o 	c #BA372D",
"p 	c #B53529",
"q 	c #8A2019",
"r 	c #8F231A",
"s 	c #BA3628",
"t 	c #BD3727",
"u 	c #912115",
"v 	c #89241B",
"w 	c #954134",
"x 	c #A13E37",
"y 	c #7A2421",
"z 	c #7F2926",
"A 	c #A43E3A",
"B 	c #A33D39",
"C 	c #7C2323",
"D 	c #7A2423",
"E 	c #A13D3B",
"F 	c #9F3E3B",
"G 	c #782723",
"H 	c #7B2A23",
"I 	c #A13D33",
"J 	c #A54037",
"K 	c #7B231A",
"L 	c #7E271E",
"M 	c #FFEBE3",
"N 	c #F9B7B4",
"O 	c #FFC7C8",
"P 	c #FFC9CD",
"Q 	c #F7B4B6",
"R 	c #F9B7B8",
"S 	c #FFC9CE",
"T 	c #FEC6CD",
"U 	c #FFC4CB",
"V 	c #F6B8BA",
"W 	c #EFBBBA",
"X 	c #FECBC8",
"Y 	c #FFC6C6",
"Z 	c #FFCBC5",
"` 	c #FFEAE2",
" .	c #FFF6F2",
"..	c #EED2D7",
"+.	c #402C35",
"@.	c #3D2932",
"#.	c #270C15",
"$.	c #E9CED7",
"%.	c #3D2B38",
"&.	c #D4C4D3",
"*.	c #D6C1D2",
"=.	c #24101B",
"-.	c #E7D4D6",
";.	c #3B292B",
">.	c #3D2731",
",.	c #27111A",
"'.	c #DBC7C7",
").	c #FFF3EE",
"!.	c #E3D6D2",
"~.	c #B1A9B0",
"{.	c #C9C8D2",
"].	c #191A25",
"^.	c #CEC8D1",
"/.	c #CEC7D3",
"(.	c #30313E",
"_.	c #2F3142",
":.	c #CACBDF",
"<.	c #2D2D3D",
"[.	c #C9C9CB",
"}.	c #D9D6D9",
"|.	c #2D2B3A",
"1.	c #D9D6E5",
"2.	c #DDD8DC",
"3.	c #ECD1CC",
"4.	c #FFFBF6",
"5.	c #CCC9CD",
"6.	c #DAD8E2",
"7.	c #302E38",
"8.	c #D9D4D8",
"9.	c #DBD5D9",
"0.	c #312D38",
"a.	c #D7D5E4",
"b.	c #2E2F41",
"c.	c #2E303D",
"d.	c #CBC8CD",
"e.	c #CAC7CA",
"f.	c #1B1724",
"g.	c #CFC8D6",
"h.	c #B6ADB0",
"i.	c #EFCECB",
"j.	c #FFF8F2",
"k.	c #E4D1D5",
"l.	c #D5C6CE",
"m.	c #25141A",
"n.	c #DBC4C5",
"o.	c #E9D0D1",
"p.	c #3E292E",
"q.	c #D7C4CD",
"r.	c #D7C5D2",
"s.	c #24121C",
"t.	c #D6C4C5",
"u.	c #D9C6C8",
"v.	c #28121A",
"w.	c #EAD2DA",
"x.	c #D9C2C3",
"y.	c #FFF1EC",
"z.	c #D29E9D",
"A.	c #D59DA5",
"B.	c #CDA1A5",
"C.	c #CFA1A3",
"D.	c #DA9C9F",
"E.	c #DE9E9F",
"F.	c #D29E9B",
"G.	c #D2A09F",
"H.	c #D99FA5",
"I.	c #D49B9E",
"J.	c #CFA09B",
"K.	c #D0A29A",
"L.	c #D99EA0",
"M.	c #D79B9D",
"N.	c #CE9D97",
"O.	c #D59F91",
"P.	c #772825",
"Q.	c #7F2327",
"R.	c #732B28",
"S.	c #762B27",
"T.	c #822321",
"U.	c #872622",
"V.	c #78281F",
"W.	c #77261F",
"X.	c #832422",
"Y.	c #76271F",
"Z.	c #772821",
"`.	c #81211F",
" +	c #842722",
".+	c #762B20",
"++	c #782F21",
"@+	c #A63E2C",
"#+	c #B3382A",
"$+	c #8B2218",
"%+	c #B6362A",
"&+	c #B7352A",
"*+	c #8F2119",
"=+	c #B9332E",
"-+	c #B7342E",
";+	c #8E211D",
">+	c #B6352C",
",+	c #892218",
"'+	c #85241C",
")+	c #AE3827",
"!+	c #C13326",
"~+	c #941B0F",
"{+	c #971E13",
"]+	c #C03023",
"^+	c #C33427",
"/+	c #971B10",
"(+	c #991D15",
"_+	c #C12F25",
":+	c #C5322B",
"<+	c #951B15",
"[+	c #971E17",
"}+	c #C03025",
"|+	c #C33329",
"1+	c #921B13",
"2+	c #8C221B",
"3+	c #AB362E",
"4+	c #BD2E2A",
"5+	c #981C16",
"6+	c #961D14",
"7+	c #BB3227",
"8+	c #931F12",
"9+	c #961F13",
"0+	c #BB3026",
"a+	c #BD3125",
"b+	c #931F10",
"c+	c #942013",
"d+	c #BD2E2C",
"e+	c #951D16",
"f+	c #8B2419",
"g+	c #7D2425",
"h+	c #8C2123",
"i+	c #812522",
"j+	c #832623",
"k+	c #89231F",
"l+	c #87241F",
"m+	c #7D281E",
"n+	c #7F281F",
"o+	c #8B231D",
"p+	c #7D281C",
"q+	c #892120",
"r+	c #802522",
"s+	c #772B25",
"  . + @ # $ % & * = - ; > , ' ) ",
"! ~ { ] ^ / ( _ : ^ < [ } | 1 2 ",
"3 4 5 6 7 8 9 0 ~ a b c d e f g ",
"h i j g k l m n o p q r s t u v ",
"w x y z A B C D E F G H I J K L ",
"M N O P Q R S T U V W X O Y Z ` ",
" ...+.@.#.$.%.&.*.=.-.;.>.,.'.).",
"!.~.{.].^./.(._.:.<.[.}.|.1.2.3.",
"4.5.6.7.8.9.0.a.b.c.d.e.f.g.h.i.",
"j.k.l.m.n.o.p.q.r.s.t.u.v.w.x.y.",
"z.A.B.C.D.E.F.G.H.I.J.K.L.M.N.O.",
"P.Q.R.S.T.U.V.W.X.T.Y.Z.`. +.+++",
"@+#+$+$+%+&+*+*+=+-+;+;+>+>+,+'+",
")+!+~+{+]+^+/+(+_+:+<+[+}+|+1+2+",
"3+4+5+6+l 7+8+9+0+a+b+c+4+d+e+f+",
"g+h+i+j+k+l+m+n+o+v p+n+q+h+r+s+"};
